<svg
  viewBox="0 0 100 125"
  style="enable-background: new 0 0 100 100"
  xml:space="preserve"
  fill="#DB13E6"
>
  <g>
    <path
      d="M71.4,84.6c-6.3,4.1-12.8,6.5-19.5,8.3c-0.9,0.2-1.9,0.2-2.7,0C42.9,91.2,36.8,89,31,85.5c1.3,3.1,2.9,5.6,5,7.8   c0.3,0.3,0.4,0.8,0.6,1.2c-0.4,0.2-0.9,0.6-1.2,0.5c-7.3-1.4-14.1-3.8-18.3-10.5c-1.1-1.8-1.4-4.1-2.1-6.2c-0.1-0.5-0.2-1-0.4-1.5   c-0.1,0.2-0.1,0.5-0.2,0.7c-0.2,0.3-0.4,0.6-0.7,0.9c-0.3-0.3-0.7-0.6-0.8-1c-1.6-6.6-1.7-13.1,0.1-19.7c0.1-0.5,0.2-1,0.5-1.8   c-1.5,1-2.7,1.7-3.9,2.6c-1.6,1.1-2,0.9-2.4-0.9c-0.9-4.4-1-8.7,0.7-13.3c-0.8,0.6-1.3,1-1.9,1.3c-0.4,0.2-1,0.4-1.2,0.2   c-0.3-0.2-0.4-0.9-0.3-1.2c0.7-1.7,1.4-3.4,2.3-4.9c1.7-2.7,4-4.7,6.9-6c-1.5-4.6-0.9-7.5,1.8-9.6c2.7-2,5.9-1.8,9.4,0.6   c5.8-7.9,8-8.7,15.9-5.8c-1.4-3.7-1.6-7.1,1.4-10.1c1.8-1.8,3.7-2.5,5.3-2.2c-2.2,5.2-4.8,10.5,2.1,14.4c3.2-6.5,5.9-8.3,11.5-7.9   c3.3,0.2,4.8,1,5.2,2.4c-3.2,1.2-6.3,2.4-9.4,3.6c-0.6,0.2-1,0.8-1.5,1.4c7.5-2.1,14.6-2.7,20.6,3.7c3-1.9,6.1-2.3,9,0   c2.8,2.1,3.1,5.1,2.2,8.4c4.9,3.2,7.7,7.7,8.7,13.3c0.1,0.4,0.2,0.8,0.1,1.2c-0.1,0.6-0.3,1.3-0.4,1.9c-0.6-0.2-1.1-0.4-1.6-0.6   c-0.6,2.1-1.1,4.4-1.8,6.7c-0.3,1-0.9,1.9-2,0.8c-0.5,1-1,2-1.4,3c-0.1,0.3,0,0.7,0.1,1c2.4,5.9,2.5,12,1.3,18.2   c-0.1,0.4-0.5,0.8-0.8,1.1c-0.2-0.4-0.5-0.7-0.6-1.1c-0.2-1-0.3-2-0.5-3.4c-0.6,1.4-1.2,2.3-1.3,3.3c-0.6,6.3-4.1,10.7-9.6,13.4   c-3.2,1.6-6.8,2.5-10.3,3.6c-0.5,0.2-1.1-0.2-1.7-0.3c0.2-0.5,0.4-1.1,0.7-1.5C68.4,90.7,70,88,71.4,84.6z M69.8,57.7   c0.1,0,0.2,0,0.3-0.1c-0.1-1.3-0.1-2.7-0.3-4c-0.6-3.1-1.3-6.2-1.9-9.4c-0.1-0.5,0.2-1,0.3-1.6c0.5,0.2,1.1,0.2,1.5,0.6   c0.8,0.9,1.6,1.8,2.1,2.9c2.2,4.5,4.3,9,6.4,13.6c0.2,0.4,0.4,0.7,0.5,1.1c0.2,0,0.4-0.1,0.6-0.1c0-3.4,0-6.8,0-10.1   c0-0.5,0.4-1.1,0.7-1.6c0.4,0.4,0.9,0.8,1.2,1.3c0.4,0.7,0.5,1.5,0.7,2.2c0.2,0.7,0.4,1.5,0.7,2.2C82.9,47,81,40,76.5,33.8   c-3.4-4.7-7.8-7.5-13.9-6.9c-4,0.4-7.5,2.1-10.8,4.4c-1,0.7-1.6,0.8-2.5-0.1c-1.9-1.9-4.2-3.2-6.8-3.6c-6.2-1-11.8,0.6-16.5,4.7   c-6,5.2-7.3,12.1-6.7,19.5c0.1,0.9,0.2,1.9,0.4,3.2c0.7-1.4,1.1-2.3,1.6-3.2c0.2-0.3,0.6-0.7,0.8-0.6c0.3,0.1,0.7,0.5,0.8,0.8   c0.2,0.3,0.1,0.7,0.2,1.1c0.7,3.2,2.6,5.5,5.1,7.9c-0.1-1.5-0.3-2.6-0.3-3.7c-0.2-5.9,1.2-11.4,3.4-16.8c0.3-0.8,1.1-1.4,1.7-2.2   c0.1,0.9,0.3,1.9,0.1,2.7c-1,5.3-0.6,10.5,1.6,15.7c0.2-0.5,0.3-0.8,0.4-1.1c1.6-4.8,3.2-9.6,4.8-14.4c0.1-0.3,0.3-0.7,0.5-1   c0.2-0.2,0.5-0.4,0.7-0.4c0.2,0.1,0.5,0.4,0.5,0.7c0.1,0.3,0,0.7-0.1,1.1c-1.2,5.3,0,10,2.9,14.5c0.5,0.7,1,1.3,1.4,1.9   c0.4-2.7,0.5-5.5,1.4-8c1-3.1,2.7-6.1,4.1-9.1c0.2-0.4,0.8-0.5,1.2-0.8c0.2,0.4,0.5,0.9,0.5,1.3c0.1,0.7-0.1,1.4-0.2,2   c-0.4,5,2.1,9.7,6.3,11.7c-1.3-4.1-1.2-8.1-1-12.2c0-0.6,0.5-1.2,0.8-1.7c0.5,0.3,1.2,0.4,1.6,0.8c1.4,1.8,3,3.7,4.1,5.7   C66.5,51,68.1,54.4,69.8,57.7z M25.5,60.6c0,0.3-0.1,0.5-0.1,0.7c0.7,6.7,1.7,13.3,3.8,19.7c0.2,0.5,0.7,1,1.1,1.4   c4,3,8.5,5.1,13.3,6.6c8.5,2.7,5.2,2.7,13.7,0c4.7-1.5,9.2-3.6,13.3-6.5c1.7-1.2,2.8-2.7,3.1-4.8c0.7-4.2,1.2-8.5,2.2-12.6   c0.9-3.8,0.1-7.1-1.6-10.4c-1.3-2.5-2.5-5.1-3.8-7.6c-0.1,0.1-0.2,0.1-0.4,0.2c0.1,0.4,0.2,0.8,0.2,1.2c0.4,3.5,0.9,6.9,1,10.4   c0.1,1.6-0.5,3.2,0.8,4.6c0.4,0.5,0.3,1.6,0.2,2.4c-0.3,1.9-1.5,3.2-3,4.2c-2.3,1.5-4.6,3-7,4.5c-0.6-0.9-1.2-1.9-1.9-2.9   c-0.7-1-1.5-2-2.2-3c-0.6-1-1.3-1.9-1.7-3c-1.3-3.2,0.4-5.9,3.8-6.3c2.2-0.3,3.3,1.2,4.4,2.4c1.4-0.5,2.7-0.9,4-1.3   c-1.1-4.2-7.1-15-9.2-16.3c0,2.2-0.2,4.5,0.1,6.7c0.2,1.9,1.1,3.7,1.7,5.5c0.2,0.5,0.3,1,0.4,1.5c-0.6,0-1.2,0.2-1.7,0   c-4.3-1.8-7.3-4.8-8.4-9.4c-0.3-1.1-0.4-2.3-0.7-3.8c-2.5,5.1-4.1,10-3,15.4c0.1,0.6-0.1,1.3-0.1,2c-0.6-0.3-1.4-0.6-1.9-1.1   c-3.6-3.8-5.9-8.2-6.6-13.5c-0.2,0-0.3,0-0.5,0c-1.1,4.5-2.3,8.9-3.4,13.4c0.7,0.4,1.1,0.7,1.7,1c0.2-0.3,0.4-0.5,0.5-0.7   c1.6-1.9,3.3-2.4,5.4-1.6c2.2,0.9,3,2.3,2.7,4.9c-0.1,1-0.5,2-1,2.8c-1.7,2.5-3.5,4.9-5.1,7.3c-2.2-1.4-4.4-2.8-6.6-4.2   c-2-1.3-3.5-3-3.5-5.6c0-0.3-0.1-0.6-0.3-0.8C28,62.8,26.8,61.7,25.5,60.6z M74.6,25.8c-1.5-2.1-3.6-3.6-6.2-4.3   c-4.6-1.2-8.9-0.3-13.2,1.3c-0.3,0.1-0.5,0.3-0.7,0.5c-0.4,0.4-0.9,0.8-1.3,1.2c-0.2-0.2-0.3-0.3-0.5-0.5c-0.3-6.1,4.6-7.2,9.1-9.1   c-1.9-0.6-3.5-0.4-5.1,0.2c-3.6,1.4-4.9,4.5-5.8,7.9c-6.6-2.1-7.8-4.6-6.7-13.8c-0.2,0.1-0.4,0.2-0.6,0.3c-2.2,1.9-2.8,4.4-1.6,7.6   c1,2.3,2.4,4.5,3.6,6.9c-0.2,0.2-0.6,0.5-0.8,0.6c-1.8-1.4-3.5-2.8-5.2-4c-6.2-4.2-11.5,0.8-13.1,5.4c1,0.6,1.9,1.2,2.8,1.8   c7.5-3,14.6-3.7,21.2,2.2c0.7-0.4,1.3-0.9,2-1.3c5.9-3.4,11.9-5,18.5-1.9c0.3,0.2,0.9,0.1,1.3-0.1C73.1,26.6,73.8,26.2,74.6,25.8z    M8.6,56.9c3.1-1.6,6.1-3.2,9.2-4.8c0-2-0.2-4.3,0-6.6c0.2-2.3,0.9-4.5,1.3-6.7c0.1-0.4,0-1-0.3-1.2c-1.3-0.9-2.6-2-4.1-2.4   c-0.8-0.2-2,0.8-3,1.4c-0.6,0.3-1.1,0.8-1.6,1.3c-1.4,1.4-2.7,3-3.3,5.1c0.8-0.3,1.4-0.6,2-0.7c0.4-0.1,1,0,1.3,0.3   c0.2,0.2,0.1,0.9-0.1,1.2C7.5,48,7.9,52.4,8.6,56.9z M84.5,55c-0.3,1.7-0.4,3.3-0.8,4.9c-0.1,0.4-0.6,0.7-0.9,1.1   c-0.3-0.4-0.7-0.7-0.9-1.1c-0.2-0.5-0.2-1.1-0.3-1.7c-0.1-0.5-0.3-1.1-0.4-1.7c-0.3,5.1-0.6,10.1-0.9,15.1c1.2,0,1.6,0.3,1.1,1.9   c-1,3.7-2.1,7.4-3.2,11.4c1.6-1.5,3.1-2.7,4.4-4.2c2.4-2.5,4.1-5.3,4.7-8.8c0.1-0.5,0.4-0.9,0.7-1.4c0.5,0.3,0.9,0.6,1.4,0.8   C89.8,65.3,88,60,84.5,55z M33.2,92.9c-1.2-2.2-2.7-4.5-3.7-6.9c-3.1-7-4.4-14.5-5.4-22c-0.4-3.3-0.2-6.7-2.6-9.7   c-0.3,1.5-0.7,2.8-0.8,4.2c-0.1,3.2-0.2,6.5,0,9.7c0.5,6.9,1.6,13.6,6.6,19c0.2,0.2,0.2,0.7,0.3,1.1c-0.4,0.1-0.9,0.3-1.3,0.2   c-0.7-0.2-1.3-0.6-1.9-1c-2.2-1.6-4.4-3.2-6.5-4.8C19.3,87.1,26.9,92.2,33.2,92.9z M88.6,56.4c0.3-2.7,0.6-5,1-7.3   c0.1-0.6,0.6-1.2,0.9-1.7c0.4,0.6,0.8,1.1,1.1,1.7c0.2,0.6,0.2,1.3,0.4,2.4c0.1-1.1,0.3-1.8,0.3-2.5c0-0.7-0.1-1.4-0.1-2   c0-0.7-0.1-1.5,0.3-1.9c0.3-0.3,1.2,0.1,1.9,0.1c-1.2-4.7-3.5-8.6-7.5-11c-1.5,0.9-2.8,1.6-4,2.3c-1.4,0.7-1.7,1.7-1.2,3.1   c0.8,2.6,2,5.2,2.2,7.8C84,51.1,86,53.6,88.6,56.4z M23.2,84.8c-0.9-2.4-1.8-4.5-2.4-6.7c-1.6-5.7-1.8-11.5-1.7-17.4   c0-2.1-0.6-4.1-1-6.2c-2.1,0.4-3,1.6-3.5,3.4c-1.3,4.9-1.5,9.8-1,14.8c0,0.3,0.2,0.5,0.2,0.6c0.6-0.3,1.1-0.6,1.7-0.7   c0.1,0,0.5,0.6,0.5,1C16.1,78.7,19.3,81.8,23.2,84.8z M84.9,81.1c-2.6,2.2-5.1,4.2-7.6,6.2c-0.5,0.4-1.3,0.4-1.9,0.6   c0.1-0.6,0.1-1.3,0.3-1.9c1.3-3.6,2.7-7.2,4.1-11c-1.9,0.2-2.1-0.1-1.9-1.5c0.6-3.1,1.1-6.3,1.6-9.5c-0.7-0.1-1.2-0.2-1.6-0.3   c-1.5,10.4-3.1,20.6-9.6,29.5C75.5,91.1,81.9,88.6,84.9,81.1z M20.2,36.1c2.5-2.6,4.9-5,7.4-7.5c-1.5-1.3-3.4-1.6-5.5-0.8   c-2.1,0.8-3.2,2.5-3.4,4.7C18.6,34,18.8,35.4,20.2,36.1z M76.9,25.7c4.7,1.1,6.2,3.2,6.4,8.7c1.9-1,2.7-2.6,2.8-4.6   c0.1-2.4-1-4.1-3.2-5.1C80.8,23.8,78.9,24.1,76.9,25.7z M23.2,25.8c-1.1-1.4-3.2-2-5.2-1.3c-2.3,0.8-3.8,2.8-3.8,5.2   c0,2.1,1.1,3.9,2.9,4.5C17,29.2,18.8,26.8,23.2,25.8z M73.7,28.1c2.2,2.8,4.4,5.5,6.6,8.3c1.8-2.3,1.9-5.2-0.1-7.3   C78.6,27.2,75.7,26.8,73.7,28.1z M30.8,47.1c-1.4,5-2,10-0.6,14.9c1.5-0.7,2.8-1.3,4.2-1.9C32.3,56.1,31.2,51.7,30.8,47.1z"
    />
    <path
      d="M41.5,78c0.8-0.1,1.3-0.1,1.8-0.1c5,0,10,0,15,0c1.4,0,1.9,0.4,1.6,1.8c-1.1,4.5-3.4,8.1-7.9,9.7c-0.8,0.3-2,0.3-2.8,0   c-1.1-0.4-2.2-1.1-3-1.9C43.5,85,42.4,81.7,41.5,78z M59.5,78.8c-5.9,0-11.3,0-16.9,0c0.2,0.8,0.5,1.5,0.6,2.2c0.3,1.4,1,2,2.6,2   c3.6,0,7.3,0.1,10.8,2.7C57.5,83.3,58.4,81.2,59.5,78.8z"
    />
    <path
      d="M50.9,73.7c-0.2-0.6-0.4-1.1-0.6-1.7c0.2-0.1,0.3-0.2,0.5-0.2c0.6,0.6,1.2,1.1,1.9,1.8c-0.6,0.8-1.3,1.6-2,2.6   C49.4,75,51.1,74.6,50.9,73.7z"
    />
  </g>
</svg>