<svg viewBox="0 0 100 125" fill="#DB13E6" enable-background="new 0 0 100 100" xml:space="preserve"><g><path fill-rule="evenodd" clip-rule="evenodd" d="M70.6,82.361c-5.443,3.633-11.104,5.651-16.854,7.501   c-2.145,0.69-4.119,0.692-6.263-0.002c-5.278-1.71-10.491-3.539-15.504-6.607c1.189,2.958,2.753,5.33,4.753,7.438   c0.277,0.293,0.398,0.734,0.592,1.107c-0.425,0.183-0.893,0.586-1.27,0.515c-6.718-1.281-12.944-3.502-17.097-9.428   c-1.532-2.186-2.201-4.676-2.379-7.317c-0.016-0.233-0.144-0.459-0.18-0.57c-0.351,0.504-0.714,1.026-1.078,1.549   c-0.293-0.59-0.729-1.151-0.857-1.775c-1.248-6.054-1.344-12.097,0.334-18.102c0.107-0.384,0.209-0.77,0.306-1.157   c0.009-0.037-0.037-0.087-0.144-0.319c-1.29,0.851-2.554,1.691-3.825,2.521c-1.084,0.708-1.635,0.503-1.886-0.752   c-0.853-4.267-1.07-8.517,0.584-12.954c-0.458,0.255-0.731,0.39-0.987,0.554c-0.251,0.161-0.461,0.412-0.73,0.516   c-0.383,0.147-0.803,0.196-1.207,0.288c-0.082-0.5-0.352-1.059-0.216-1.489c1.318-4.159,3.766-7.456,7.6-9.644   c0.343-0.195,0.705-0.357,1.121-0.566c-1.51-3.493-1.367-6.704,1.791-9.178c2.504-1.963,5.687-1.681,8.942,0.61   c1.604-2.603,3.389-5.051,6.271-6.393c3.06-1.425,5.94-0.76,8.896,0.964c-0.29-1.152-0.576-2.088-0.756-3.044   c-0.747-3.964,1.859-7.975,5.794-8.913c0.399-0.095,0.85,0.024,1.276,0.044c-0.108,0.394-0.209,0.79-0.327,1.181   c-0.584,1.946-1.444,3.856-1.697,5.844c-0.402,3.158,1.194,5.382,4.319,6.663c1.831-5.053,5.202-8.003,10.841-7.393   c1.911,0.207,4.164,0.062,5.287,2.498c-3.871,1.063-7.903,1.423-11.122,4.799c7.543-2.326,14.402-2.823,20.075,3.308   c2.875-1.826,5.805-2.148,8.56-0.057c2.676,2.032,3.035,4.888,2.136,8.02c4.664,2.997,7.309,7.288,8.26,12.668   c0.078,0.442,0.213,0.901,0.159,1.332c-0.077,0.6-0.308,1.179-0.473,1.768c-0.503-0.228-1.006-0.456-1.677-0.76   c-0.076,0.766-0.067,1.638-0.264,2.46c-0.334,1.401-0.733,2.794-1.227,4.146c-0.344,0.943-0.906,1.757-1.86,0.54   c-0.463,1.158-0.899,2.248-1.382,3.457c2.444,5.691,2.597,11.75,1.396,17.909c-0.071,0.365-0.447,0.67-0.681,1.003   c-0.224-0.345-0.565-0.663-0.649-1.039c-0.206-0.923-0.292-1.873-0.664-2.905c-0.38,0.961-1.001,1.897-1.102,2.887   c-0.627,6.194-4.173,10.308-9.487,12.897c-2.975,1.449-6.266,2.261-9.447,3.258c-0.5,0.157-1.172-0.231-1.764-0.367   c0.272-0.484,0.465-1.041,0.831-1.439C67.739,88.176,69.247,85.59,70.6,82.361z M51.141,44.368   c-2.442,4.611-3.995,9.364-2.843,14.65c0.111,0.508-0.114,1.09-0.183,1.638c-0.532-0.249-1.195-0.371-1.576-0.766   c-3.542-3.674-5.859-7.983-6.578-13.127c-1.342,3.656-2.763,7.251-3.038,11.277c0.461-0.069,0.76-0.188,1.031-0.142   c1.796,0.307,3.601,0.586,5.365,1.029c0.374,0.094,0.587,0.824,0.875,1.262c-0.483,0.028-0.973,0.113-1.448,0.065   c-0.333-0.033-0.642-0.261-0.97-0.38c-3.206-1.173-5.966-0.446-7.961,2.297c-0.839,1.153-1.373,2.53-2.025,3.815   c-0.157,0.308-0.157,0.718-0.364,0.973c-0.242,0.3-0.63,0.481-0.956,0.714c-0.143-0.417-0.317-0.826-0.411-1.254   c-0.037-0.168,0.079-0.391,0.173-0.563c0.503-0.927,0.408-1.628-0.558-2.253c-0.305-0.198-0.309-0.872-0.434-1.332   c-0.057-0.211,0.007-0.518-0.12-0.638c-0.76-0.718-1.559-1.394-2.584-2.294c0.69,6.928,1.683,13.428,3.79,19.711   c0.156,0.466,0.621,0.884,1.038,1.197c4.125,3.103,8.909,4.832,13.653,6.711c3.845,1.523,7.43,1.5,11.262-0.021   c4.648-1.844,9.311-3.576,13.421-6.523c1.718-1.232,2.82-2.718,3.154-4.844c0.627-3.991,1.149-8.017,2.109-11.931   c0.886-3.611,0.122-6.76-1.513-9.9c-1.254-2.409-2.406-4.871-3.604-7.309c-0.117,0.05-0.234,0.1-0.352,0.15   c0.063,0.381,0.147,0.76,0.186,1.144c0.354,3.466,0.731,6.93,1.02,10.401c0.051,0.606-0.078,1.441-0.465,1.831   c-1.21,1.218-0.611,2.071,0.301,2.994c0.171-0.102,0.29-0.214,0.427-0.248c0.55-0.134,1.106-0.245,1.66-0.364   c-0.241,0.511-0.36,1.167-0.752,1.501c-0.609,0.519-0.754,0.968-0.398,1.661c0.181,0.351,0.358,0.753,0.356,1.131   c-0.001,0.338-0.25,0.675-0.391,1.013c-0.341-0.198-0.821-0.314-0.994-0.61c-0.321-0.55-0.439-1.215-0.681-1.816   c-2.301-5.729-6.522-7.176-10.884-4.875c-0.303,0.16-0.844-0.132-1.273-0.213c0.231-0.381,0.371-0.94,0.708-1.114   c3.004-1.545,6.003-1.745,8.928,0.242c0.334,0.227,0.677,0.44,1.015,0.66c0.11-0.093,0.221-0.187,0.331-0.28   c-2.625-5.613-5.017-11.354-9.203-16.183c-0.076,2.739-0.04,5.429,0.311,8.078c0.17,1.285,0.941,2.488,1.417,3.737   c0.16,0.418,0.249,0.863,0.371,1.296c-0.501,0.046-1.059,0.259-1.494,0.11c-2.272-0.774-4.146-2.156-5.696-3.986   C52.27,50.299,51.498,47.446,51.141,44.368z M29.208,59.519c-0.534-4.054-0.303-8.043,0.763-11.924   c0.815-2.97,1.967-5.848,3.021-8.749c0.099-0.272,0.562-0.414,0.855-0.615c0.173,0.333,0.494,0.668,0.488,0.998   c-0.012,0.587-0.232,1.167-0.347,1.754c-0.984,5.032-0.53,9.918,1.48,14.836c0.174-0.375,0.296-0.581,0.367-0.802   c1.345-4.175,2.671-8.357,4.036-12.526c0.262-0.801,0.643-1.568,1.033-2.318c0.108-0.208,0.48-0.445,0.667-0.4   c0.214,0.051,0.481,0.39,0.503,0.624c0.041,0.432-0.125,0.878-0.128,1.319c-0.018,2.378-0.306,4.803,0.057,7.125   c0.493,3.155,2.108,5.9,4.183,8.343c0.295-2.282,0.249-4.55,0.928-6.574c1.102-3.286,2.651-6.426,4.087-9.593   c0.203-0.448,0.831-0.704,1.263-1.048c0.177,0.572,0.43,1.135,0.509,1.721c0.064,0.481-0.09,0.99-0.125,1.488   c-0.344,4.8,1.962,9.203,5.931,11.176c-0.067-0.352-0.097-0.637-0.177-0.907c-1.081-3.667-0.907-7.417-0.696-11.159   c0.077-1.363,0.871-1.676,1.877-0.787c0.706,0.624,1.439,1.299,1.901,2.101c2.267,3.928,4.449,7.904,6.654,11.866   c0.243,0.436,0.445,0.895,0.667,1.344c0.25-1.417,0.273-2.727,0.044-3.99c-0.542-2.993-1.226-5.959-1.789-8.948   c-0.088-0.466,0.158-0.996,0.249-1.496c0.474,0.166,1.095,0.198,1.394,0.524c0.769,0.842,1.553,1.736,2.049,2.749   c2.127,4.341,4.151,8.733,6.216,13.105c0.149,0.316,0.329,0.618,0.494,0.926c0.177-0.03,0.353-0.061,0.53-0.092   c0-3.229-0.028-6.458,0.028-9.687c0.009-0.515,0.394-1.023,0.604-1.535c0.389,0.384,0.953,0.7,1.133,1.165   c0.538,1.385,0.926,2.828,1.373,4.248c0.283-7.364-1.636-14.072-5.969-20.001c-3.233-4.425-7.463-7.041-13.166-6.521   c-3.782,0.344-7.119,1.922-10.173,4.078c-1.032,0.729-1.681,0.896-2.661-0.112c-1.74-1.791-3.92-2.925-6.399-3.359   c-4.237-0.743-8.27-0.006-12.042,1.984c-6.982,3.685-9.947,9.811-10.243,17.421c-0.083,2.136,0.18,4.287,0.284,6.43   c0.134,0,0.269,0.001,0.403,0.001c0.371-0.754,0.686-1.545,1.136-2.25c0.261-0.408,0.74-0.677,1.122-1.009   c0.269,0.445,0.706,0.866,0.778,1.341C24.894,55.038,26.882,57.345,29.208,59.519z M73.721,26.181   c-1.538-2.035-3.497-3.35-5.862-4.025c-4.39-1.254-8.599-0.372-12.729,1.21c-0.258,0.099-0.474,0.323-0.69,0.512   c-0.422,0.368-0.831,0.752-1.399,1.271c-0.946-4.119,0.437-5.591,8.306-9.316c-1.706-0.541-3.251-0.318-4.752,0.246   c-3.462,1.3-4.704,4.308-5.518,7.558c-3.099-1.007-4.78-2.098-5.897-3.833c-1.915-2.974-1.271-6.108-0.4-9.412   c-0.344,0.208-0.523,0.285-0.664,0.406c-2.072,1.784-2.711,4.23-1.48,7.23c0.916,2.233,2.252,4.293,3.464,6.549   c-0.219,0.174-0.59,0.469-0.733,0.583c-1.806-1.387-3.37-2.776-5.11-3.89c-4.808-3.08-11.069-0.387-12.408,5.229   c0.913,0.597,1.818,1.188,2.705,1.768c6.42-2.789,13.893-3.672,20.241,2.039c0.615-0.398,1.226-0.829,1.869-1.203   c4.91-2.854,10.085-4.611,15.693-2.522C70.324,27.314,71.885,27.412,73.721,26.181z M19.261,51.414   c-0.426-4.227,0.161-8.543,1.348-12.804c0.095-0.342-0.04-0.874-0.267-1.159c-1.804-2.274-4.519-2.644-6.805-0.959   c-0.521,0.384-1.041,0.789-1.483,1.256c-1.306,1.379-2.54,2.817-3.161,4.874c0.499-0.182,0.771-0.354,1.052-0.371   c0.694-0.042,1.394-0.015,2.091-0.016c-0.16,0.577-0.238,1.194-0.494,1.726c-1.885,3.917-1.659,7.95-0.945,12   C13.511,54.432,16.276,52.98,19.261,51.414z M80.099,55.667c-0.181-0.095-0.218-0.115-0.256-0.135   c-0.232,4.817-0.465,9.634-0.695,14.404c0.939-0.264,1.307,0.299,1.124,1.375c-0.101,0.589-0.258,1.171-0.423,1.747   c-0.883,3.091-1.777,6.18-2.667,9.269c0.146,0.146,0.292,0.291,0.437,0.436c1.589-1.786,3.2-3.553,4.763-5.361   c1.793-2.075,2.95-4.461,3.418-7.182c0.084-0.487,0.39-0.937,0.593-1.403c0.479,0.251,0.959,0.503,1.395,0.731   c0.359-5.573-1.346-10.666-4.719-15.407c-0.229,1.543-0.375,2.936-0.667,4.297c-0.105,0.491-0.56,0.908-0.855,1.358   c-0.312-0.484-0.745-0.932-0.908-1.462C80.362,57.44,80.257,56.493,80.099,55.667z M34.197,90.524   c-1.268-2.31-2.622-4.419-3.631-6.683c-2.979-6.68-4.324-13.798-5.129-21.011c-0.667-5.975-0.623-6.206-2.539-9.485   c-0.295,1.655-0.696,3.005-0.747,4.369c-0.108,2.894-0.193,5.804-0.005,8.689c0.441,6.75,1.472,13.341,6.419,18.56   c0.19,0.201,0.321,0.78,0.21,0.879c-0.251,0.224-0.735,0.432-1.011,0.333c-0.696-0.25-1.377-0.609-1.981-1.04   c-2.135-1.524-4.236-3.098-6.576-4.818C22.497,86.564,28.177,88.795,34.197,90.524z M92.364,44.733   c-1.056-4.481-3.306-8.173-7.105-10.554c-1.492,0.845-2.845,1.477-4.038,2.332c-0.915,0.656-1.683,1.325-1.031,2.91   c1.055,2.564,2.068,5.302,2.256,8.025c0.237,3.425,2.46,5.381,4.322,7.941c0.132-0.455,0.244-0.716,0.281-0.987   c0.292-2.125,0.532-4.258,0.884-6.373c0.071-0.426,0.551-0.784,0.843-1.173c0.288,0.349,0.715,0.656,0.835,1.056   c0.241,0.799,0.313,1.649,0.456,2.478c0.19-1.384,0.168-2.771,0.201-4.155c0.014-0.572-0.044-1.416,0.276-1.639   C90.906,44.343,91.656,44.653,92.364,44.733z M15.427,71.683c0.675-0.341,1.171-0.592,1.668-0.844   c0.202,0.575,0.535,1.139,0.584,1.726c0.386,4.557,3.333,7.305,6.733,9.762c-0.273-0.914-0.7-1.742-1.046-2.604   c-2.587-6.434-2.925-13.175-2.868-20.003c0.017-2.035-0.582-4.075-0.968-6.564c-1.15,0.9-2.349,1.357-2.66,2.159   C14.821,60.601,14.71,66.096,15.427,71.683z M76.833,62.419c-1.461,9.867-2.956,19.649-9.21,28.215   c6.878-2.05,13.035-4.462,15.808-11.609c-2.552,2.104-4.986,4.155-7.485,6.124c-0.382,0.301-1.063,0.223-1.606,0.321   c0.076-0.531,0.059-1.097,0.242-1.588c1.295-3.484,2.631-6.953,4.017-10.59c-1.778,0.091-1.987-0.225-1.742-1.584   c0.537-2.981,1.016-5.974,1.522-8.984C77.679,62.586,77.262,62.504,76.833,62.419z M21.898,36.123   c1.158-1.381,2.14-2.711,3.289-3.875c1.13-1.145,2.431-2.122,3.711-3.219c-1.706-1.381-3.529-1.715-5.497-0.904   c-2.053,0.846-3.114,2.467-3.188,4.658C20.167,34.157,20.378,35.501,21.898,36.123z M75.764,26.19   c2.224,0.316,3.998,1.095,4.883,2.795c0.83,1.594,1.135,3.461,1.688,5.259c1.492-0.831,2.31-2.386,2.289-4.347   c-0.024-2.25-1.099-3.917-3.209-4.778C79.462,24.323,77.651,24.635,75.764,26.19z M24.569,26.11   c-1.454-1.44-3.564-1.815-5.438-0.968c-2.019,0.914-3.211,2.808-3.133,4.981c0.071,1.982,1.129,3.567,2.738,4.104   C18.603,29.537,20.031,27.55,24.569,26.11z M79.123,36.311c1.793-2.07,1.804-4.993-0.106-7.014   c-1.722-1.821-4.608-2.114-6.203-0.83C74.924,31.092,77.035,33.716,79.123,36.311z M31.612,46.98   c-1.053,3.878-1.529,8.229-0.689,12.676c0.198,1.05,0.33,2.113,0.494,3.185c0.765-0.818,1.369-1.689,0.371-2.868   c-0.221-0.26-0.43-0.593-0.479-0.917c-0.051-0.336,0.098-0.703,0.16-1.057c0.375,0.116,0.873,0.122,1.097,0.373   c0.41,0.46,0.658,1.065,1.006,1.666c0.599-0.474,1.061-0.84,1.192-0.944C33.645,54.795,32.587,50.731,31.612,46.98z"/><path fill-rule="evenodd" clip-rule="evenodd" d="M42.087,72.298c0.592-0.154,0.876-0.297,1.149-0.278   c0.245,0.018,0.477,0.216,0.715,0.334c-0.154,0.223-0.264,0.581-0.47,0.649c-3.035,1.009-6.086,0.948-9.121-0.001   c-0.208-0.065-0.322-0.424-0.48-0.646c0.288-0.107,0.593-0.337,0.859-0.297c0.826,0.124,1.637,0.35,2.768,0.607   c-1.817-2.653-2.275-5.268-1.595-8.065c0.598-2.462,2.145-4.098,3.812-4.061c1.616,0.037,3.105,1.646,3.689,4.025   C44.063,67.214,43.709,69.719,42.087,72.298z M42.208,64.298c0.01-1.178-0.967-2.203-2.148-2.254   c-1.236-0.053-2.323,0.979-2.333,2.218c-0.01,1.178,0.967,2.203,2.148,2.254C41.111,66.569,42.198,65.537,42.208,64.298z"/><path fill-rule="evenodd" clip-rule="evenodd" d="M64.314,72.661c1.117-0.25,1.927-0.471,2.751-0.595   c0.273-0.041,0.583,0.167,0.877,0.262c-0.19,0.247-0.335,0.646-0.578,0.719c-2.94,0.881-5.9,0.95-8.844,0.021   c-0.262-0.083-0.434-0.449-0.648-0.684c0.503-0.134,1.006-0.268,1.611-0.43c-1.222-2.101-1.711-4.501-1.135-7.066   c0.595-2.649,2.138-4.391,3.88-4.348c1.691,0.042,3.184,1.756,3.747,4.324C66.573,67.581,66.093,70.104,64.314,72.661z    M64.708,64.298c0.01-1.178-0.967-2.203-2.148-2.254c-1.236-0.053-2.322,0.979-2.333,2.218c-0.01,1.178,0.967,2.203,2.148,2.254   C63.611,66.569,64.698,65.537,64.708,64.298z"/><path fill-rule="evenodd" clip-rule="evenodd" d="M50.852,81.547c-1.283-0.537-2.472-0.992-3.612-1.55   c-0.215-0.105-0.23-0.619-0.338-0.944c0.31,0.019,0.689-0.073,0.918,0.073c1.962,1.244,3.891,1.382,5.873,0.033   c0.229-0.156,0.668-0.004,1.01,0.005c-0.127,0.287-0.177,0.725-0.394,0.834C53.22,80.543,52.087,81.004,50.852,81.547z"/><path fill-rule="evenodd" clip-rule="evenodd" d="M52.446,72.271c-0.397,0.51-0.967,1.24-1.617,2.072   c-1.419-1.132,0.577-1.513,0.269-2.239c-0.23-0.559-0.459-1.117-0.689-1.675c0.182-0.097,0.364-0.193,0.545-0.289   C51.407,70.787,51.859,71.434,52.446,72.271z"/></g></svg>