<svg  x="0px" y="0px" viewBox="0 0 100 125" fill="#DB13E6" enable-background="new 0 0 100 100" xml:space="preserve"><path d="M41.2,65.2c13.2-10.2,27.3-22.3,28-37.2c0.3-7.7-3.2-15.5-10.6-23.3c1.8,6.3,3.2,18.6-7.8,29.9c-4.9,5.1-9.2,9-13,12.5  C28.3,56,23.1,60.9,22.2,70.3c-0.6,6,0.9,11.1,4.5,15c3.6,4,8.8,6,12.6,6.3c-2.6-2.2-6.4-6.5-6.7-12C32.4,74.7,35.3,69.8,41.2,65.2z  "/><path d="M57.7,53.8c1.2-0.1,2.3-0.3,4.3-0.3l0.6,0c15,0,18.8-17.2,11.8-17.5c-1.3,0-3.1,0.5-5.3,1.9C66.6,43.6,62.5,48.9,57.7,53.8z  "/><path d="M57.8,53.6c-4.6,4.7-10.2,9.1-15.4,13.1c-5.4,4.2-8,8.5-7.8,12.9c0.1,3,1.6,5.7,3.3,7.7c1.6,0.4,3.1,0.6,4.5,0.6  c7.6-0.2,12-6.1,3.2-9.2l0-0.1c0,0,0,0,0,0v0c0.1,0,0.2,0.1,0.3,0.1c2.1,0.7,4.5,1.1,6.9,1.1c4,0,7.7-1.3,8.2-5.1  c0.8-4.7-4-7.2-8-7.9v-0.1c1.9,0,4-0.1,6.1-0.3c4.5-0.5,9-1.7,11.2-4c1.5-1.5,1.9-3.6,0.8-6.2c-0.3-0.7-0.9-1.3-1.7-1.7  c-1.5-0.8-3.8-1.1-6-1.1c-0.5,0-0.9,0-1.4,0v0c0,0-0.1,0-0.1,0C60.3,53.5,59,53.5,57.8,53.6z"/></svg>